# xmcd
#
# Track frame offsets: 
#        150
#        24778
#        48146
#        72519
#        90494
#        117179
#        133412
#        157595
#        183078
#        208617
#        240319
#        267624
#
# Disc length: 3872 seconds
#
# Revision: 1
# Processed by: cddbd v1.5.2PL0 Copyright (c) Steve Scherf et al.
# Submitted via: ExactAudioCopy v1.0b3
#
DISCID=960f1e0c
DTITLE=Калинов мост - Ледяной походъ
DYEAR=2007
DGENRE=Folk/Rock
TTITLE0=Азиатская
TTITLE1=Я Воль
TTITLE2=Вечное небо
TTITLE3=Крест деревянный
TTITLE4=Севастополь
TTITLE5=Пионеры
TTITLE6=Не предать
TTITLE7=Фройлен, прощайте
TTITLE8=Челом
TTITLE9=Хорошо
TTITLE10=Благодать
TTITLE11=Табачок турецкий
EXTD=
EXTT0=
EXTT1=
EXTT2=
EXTT3=
EXTT4=
EXTT5=
EXTT6=
EXTT7=
EXTT8=
EXTT9=
EXTT10=
EXTT11=
PLAYORDER=
